<svg xmlns="http://www.w3.org/2000/svg" xmlns:svg="http://www.w3.org/2000/svg" id="svg2" width="91" height="130" version="1.1"><metadata id="metadata18"/><g id="g4146" transform="matrix(0.1969697,0,0,0.1969697,-0.26766467,-0.35191614)"><circle style="fill:#80cc28;fill-opacity:1" id="circle4" cx="233" cy="233" r="231" transform="translate(-0.64108708,-0.21334885)"/><path id="path6" d="m 232.35891,458.78665 a 226,226 0 1 1 0,-451.9999988 113,113 0 0 1 0,225.9999988 z" style="fill:#fff"/><circle style="fill:#80cc28;fill-opacity:1" id="circle8" cx="233" cy="346" r="113" transform="translate(-0.64108708,-0.21334885)"/><circle id="circle12" cx="233" cy="346" r="30" transform="translate(-0.64108708,-0.21334885)" style="fill:#fff"/><g id="g3003" transform="matrix(9.8629308,0,0,9.8629308,-449.08303,-346.44771)"><g id="g3829" transform="translate(37.562954,22.487021)"><g id="g3816" transform="matrix(0.19633767,0,0,0.19633767,50.170173,-22.284896)"><g id="g3837" transform="translate(-140.30217,193.75061)"><path style="fill:#80cc28;fill-opacity:1" id="path95-4" d="m 379.842,425.197 c -25.048,0 -45.354,20.304 -45.354,45.354 0,25.048 20.306,45.354 45.354,45.354 25.049,0 45.354,-20.307 45.354,-45.354 0,-25.05 -20.305,-45.354 -45.354,-45.354 z m 0,86.174 c -22.545,0 -40.819,-18.275 -40.819,-40.82 0,-22.544 18.274,-40.819 40.819,-40.819 22.543,0 40.817,18.275 40.817,40.819 0.001,22.545 -18.274,40.82 -40.817,40.82 z" transform="translate(-334.48801,-425.197)"/><path style="fill:#80cc28;fill-opacity:1" id="path119-7" d="m 63.493993,43.54 0,1.813 16.331,0 c 0,9.017 -7.313,16.329 -16.331,16.329 -9.016,0 -16.324,-7.313 -16.324,-16.329 0,-9.016 7.309,-16.328 16.324,-16.328 4.443,0 8.475,1.774 11.419,4.653 l 1.412,-1.153 c -3.284,-3.283 -7.818,-5.313 -12.831,-5.313 -10.019,0 -18.137,8.121 -18.137,18.141 0,10.02 8.118,18.142 18.137,18.142 10.021,0 18.144,-8.122 18.144,-18.142 l 0,-1.813 -18.144,0 z"/></g></g></g></g></g><g id="g4189" transform="matrix(0.70359114,0,0,0.70359114,81.383148,15.152818)"><path style="fill:#80cc28;fill-opacity:1" id="path4" d="m -19.969,129.742 0,0 0,-3.822 c 0,-2.548 -2.002,-4.55 -4.55,-4.55 l -52.962,0 c -2.548,0 -4.55,2.002 -4.55,4.55 l 0,3.822 0,0 0,8.645 0,0 0,20.293 c 0,2.548 2.002,4.55 4.55,4.55 l 52.962,0 c 2.548,0 4.55,-2.002 4.55,-4.55 l 0,-20.293 0,0 0,-8.645 z m -58.422,-3.731 c 0,-0.455 0.364,-0.91 0.91,-0.91 l 52.962,0 c 0.546,0 0.91,0.455 0.91,0.91 l 0,3.731 -54.782,0 0,-3.731 z m 54.782,32.669 c 0,0.455 -0.364,0.91 -0.91,0.91 l -52.962,0 c -0.546,0 -0.91,-0.455 -0.91,-0.91 l 0,-20.293 54.782,0 0,20.293 z"/><path style="fill:#80cc28;fill-opacity:1" id="path6-6" d="m -29.9,146.7 c -1,0 -2,0.3 -2.8,0.8 -0.8,-0.5 -1.8,-0.8 -2.8,-0.8 -3.1,0 -5.6,2.5 -5.6,5.6 0,3.1 2.5,5.6 5.6,5.6 1,0 2,-0.3 2.8,-0.8 0.8,0.5 1.8,0.8 2.8,0.8 3.1,0 5.6,-2.5 5.6,-5.6 0.1,-3.1 -2.5,-5.6 -5.6,-5.6 z m -8.7,5.6 c 0,-1.7 1.4,-3.1 3.1,-3.1 0.3,0 0.6,0.1 0.9,0.1 -0.5,0.9 -0.9,1.9 -0.9,3 0,1.1 0.3,2.1 0.9,3 -0.3,0.1 -0.6,0.1 -0.9,0.1 -1.7,0.1 -3.1,-1.3 -3.1,-3.1 z"/></g></svg>