<svg xmlns="http://www.w3.org/2000/svg" width="64" height="64" version="1.1" viewBox="0 0 16.933 16.933" xml:space="preserve"><metadata/><path fill="#4c6dac" d="m8.467 3.1749a5.2903 5.2903 0 0 0-5.1262 4.0012c-1.5871 0.26451-2.8117 1.6205-2.8117 3.2747a3.3161 3.3161 0 0 0 3.3083 3.3072h9.9212c1.4555 0 2.6453-1.1911 2.6453-2.6453 0-1.4555-1.1898-2.6463-2.6453-2.6463a5.307 5.307 0 0 0-5.2916-5.2916zm-0.98958 1.1363h1.9662l-0.23409 5.1267h-1.4981l-0.23409-5.1267zm0.98338 6.1917c0.59693 0 1.065 0.48014 1.065 1.0537 0 0.58522-0.4681 1.065-1.065 1.065-0.58522 0-1.0537-0.47981-1.0537-1.065 0-0.57352 0.46844-1.0537 1.0537-1.0537z"/><style type="text/css"/><style type="text/css"/><style type="text/css"/></svg>