<svg xmlns="http://www.w3.org/2000/svg" width="24" height="24" fill="#e8eaed" version="1.1" viewBox="0 -960 960 960"><g><path fill="#000" d="M160-160q-33 0-56.5-23.5T80-240v-480q0-33 23.5-56.5T160-800h640q33 0 56.5 23.5T880-720v480q0 33-23.5 56.5T800-160H160Zm0-80h640v-480H160v480Zm0 0v-480 480Z"/><path fill="#e8eaed" stroke="#000" stroke-linecap="square" stroke-width="40" d="m260-620v280.01" stop-color="#000" style="paint-order:stroke fill markers"/><path fill="#e8eaed" stroke="#000" stroke-linecap="square" stroke-width="40" d="m699.99-340h-439.99" stop-color="#000" style="paint-order:stroke fill markers"/></g><g fill="none" stroke="#000" stroke-linecap="square" stroke-width="40"><path d="m220-660h80" stop-color="#000" style="paint-order:stroke fill markers"/><path d="m740-380v80" stop-color="#000" style="paint-order:stroke fill markers"/><path d="m220-380v80" stop-color="#000" style="paint-order:stroke fill markers"/><path d="m300-300h-80" stop-color="#000" style="paint-order:stroke fill markers"/></g></svg>