<svg xmlns="http://www.w3.org/2000/svg" width="24" height="24" version="1.1" viewBox="0 0 24 24"><metadata/><path fill="#fff" stroke-width=".566" d="m11.744 13.951 0.54891 2.0485 2.0486-0.5489 4.423-7.6606-2.5975-1.4996zm8.1802-8.1697c0.15596-0.27013 0.06375-0.61428-0.20639-0.77024l-1.6208-0.93576c-0.27014-0.15596-0.61429-0.063744-0.77026 0.20638l-0.73183 1.2675 2.5975 1.4996z"/><path fill="none" d="M0 0h24v24H0z"/><g><path fill="#fff" d="m5.3572 13.25 0.096209-0.02086 0.037362-0.09108 0.049566 0.08506 0.098167 0.0074-0.065576 0.07342 0.023309 0.09565-0.090094-0.03968-0.083761 0.05172 0.00989-0.09795z" transform="translate(.60118 -.32086)"/><path fill="none" stroke="#fff" stroke-width="1.4" d="m5.1431 7.8201 1.564 9.3841 8.737 1.5101" transform="translate(.60118 -.32086)"/><g fill="#fff" stroke="#fff" stroke-width="1.932" transform="translate(.60118 -.32086)"><rect width="1.568" height="1.568" x="4.365" y="6.921"/><rect width="1.568" height="1.568" x="5.832" y="16.169"/><rect width="1.568" height="1.568" x="14.964" y="17.787"/></g></g></svg>