<svg xmlns="http://www.w3.org/2000/svg" xmlns:svg="http://www.w3.org/2000/svg" id="svg6" width="24" height="24" version="1.1" viewBox="0 0 24 24"><metadata id="metadata12"/><path style="fill:#fff;fill-opacity:1;stroke-width:.565545" id="path2" d="M 1.5644532,3 C 1.2525334,2.9999966 0.999995,3.2525252 1,3.5644531 V 5.4355469 C 1.0000026,5.7474709 1.252533,5.999997 1.5644532,6 H 9.7283438 L 11.228344,4.5 9.7283438,3 Z"/><path id="path4" fill="none" d="M0 0h24v24H0z"/><path id="path2-7" d="M 1.5644531,18 C 1.2525333,17.999997 0.999995,18.252525 1,18.564453 v 1.871094 c 2.6e-6,0.311924 0.2525329,0.56445 0.5644531,0.564453 h 7.865063 L 10.929516,19.5 9.4295161,18 Z" style="fill:#fff;fill-opacity:1;stroke-width:.565545"/><path id="path2-5" d="m 22.435063,13.5 c 0.311919,3e-6 0.564458,-0.252525 0.564453,-0.564453 V 11.064453 C 22.999513,10.752529 22.746983,10.500003 22.435063,10.5 H 14.271 l -1.5,1.5 1.5,1.5 z" style="fill:#fff;fill-opacity:1;stroke-width:.565545"/><circle id="path908" cx="6" cy="16" r="1" style="fill:#fff;fill-opacity:1;stroke:none;stroke-width:1;stroke-linecap:square;stroke-linejoin:round"/><circle style="fill:#fff;fill-opacity:1;stroke:none;stroke-width:1;stroke-linecap:square;stroke-linejoin:round" id="path908-3" cx="6" cy="8" r="1"/><circle style="fill:#fff;fill-opacity:1;stroke:none;stroke-width:1;stroke-linecap:square;stroke-linejoin:round" id="path908-5" cx="6" cy="12" r="1"/><path id="path931" d="m 11,6 3,3" style="fill:none;stroke:#fff;stroke-width:1px;stroke-linecap:round;stroke-linejoin:round;stroke-opacity:1"/><path id="path933" d="m 11,18 3,-3" style="fill:none;stroke:#fff;stroke-width:1px;stroke-linecap:round;stroke-linejoin:round;stroke-opacity:1"/></svg>