<svg xmlns="http://www.w3.org/2000/svg" xmlns:svg="http://www.w3.org/2000/svg" xmlns:xlink="http://www.w3.org/1999/xlink" id="svg55" width="16" height="16" version="1.1"><metadata id="metadata59"/><defs id="defs37"><linearGradient id="e"><stop id="stop2" offset="0" stop-color="#eee"/><stop style="stop-color:#cfcfcf;stop-opacity:1" id="stop4" offset="1" stop-color="#aec7e2"/></linearGradient><linearGradient id="a"><stop id="stop7" offset="0" stop-color="#6e97c4"/><stop id="stop9" offset="1" stop-color="#aec7e2"/></linearGradient><linearGradient id="b"><stop id="stop12" offset="0" stop-color="#6e97c4"/><stop id="stop14" offset="1" stop-color="#aec7e2"/></linearGradient><linearGradient id="c"><stop id="stop17" offset="0" stop-color="#6e97c4"/><stop id="stop19" offset="1" stop-color="#aec7e2"/></linearGradient><linearGradient id="d"><stop style="stop-color:#cfcfcf;stop-opacity:1" id="stop22" offset="0" stop-color="#aec7e2"/><stop id="stop24" offset="1" stop-color="#eee"/></linearGradient><linearGradient id="k" x1="7.373" x2="7.449" y1="10" y2="15" gradientTransform="matrix(.65196 0 0 .6516 1.174 -6.025)" gradientUnits="userSpaceOnUse" xlink:href="#a"/><linearGradient id="j" x1="1.729" x2="7" y1="15.458" y2="15.458" gradientTransform="matrix(.65196 0 0 .6516 1.174 -6.025)" gradientUnits="userSpaceOnUse" xlink:href="#b"/><linearGradient id="i" x1="1.729" x2="7" y1="15.458" y2="15.458" gradientTransform="matrix(.65196 0 0 .6516 1.174 -6.025)" gradientUnits="userSpaceOnUse" xlink:href="#c"/><linearGradient id="h" x1="18" x2="13.172" y1="14.322" y2="10.525" gradientTransform="matrix(.59103 0 0 .59426 .78 -3.646)" gradientUnits="userSpaceOnUse" xlink:href="#d"/><linearGradient id="g" x1="4.53" x2="4.458" y1="22.364" y2="25.133" gradientTransform="matrix(1.33304 0 0 3.28136 -.623 -69.912)" gradientUnits="userSpaceOnUse" xlink:href="#e"/><linearGradient id="f"><stop id="stop32" offset="0" stop-color="#aec7e2"/><stop id="stop34" offset="1" stop-color="#6e97c4"/></linearGradient></defs><path id="path39" fill="url(#g)" d="M1.174 1.442v13.384h4.637V1.442z"/><path style="fill:#cfcfcf;fill-opacity:1" id="path41" fill="#aec7e2" d="M14.7 10.053l-.142-8.61-8.293 8.663z"/><path id="path43" fill="url(#h)" d="M5.951 1.182l-.14 9.007 8.747-8.747z"/><path id="path45" fill="url(#i)" d="M2.478 7.658c-.87 4.778-.435 2.39 0 0z"/><path id="path47" fill="url(#j)" d="M2.3 7.658c-.75 4.778-.376 2.39 0 0z"/><path id="path49" fill="url(#k)" d="M2.478.49c-.87 9.558-.435 4.779 0 0z"/><path style="stroke:#888a85;stroke-opacity:1" id="path51" fill="none" stroke="#2b3b4d" stroke-linecap="round" stroke-width=".875" d="M1.437 1.453l4.374-.01v8.746H1.437zm4.374-.01h8.747v8.746H5.811zm8.747 0l-8.747 8.746m-4.374 0h4.374v4.374H1.437z"/><path style="stroke:#888a85;stroke-opacity:1" id="path53" fill="#cfcfcf" stroke="#2b3b4d" stroke-linecap="round" stroke-width=".833" d="m 5.8105,10.25 h 4.167 l 5e-4,4.313 H 5.81 Z"/></svg>