<svg xmlns="http://www.w3.org/2000/svg" width="48" height="48" version="1.1" viewBox="0 0 48 48"><metadata/><path fill="#80cc28" stroke-width="1.842" d="m24 13.733c6.8909 0 13.036 3.976 16.036 10.267-3 6.2907-9.1273 10.267-16.036 10.267s-13.036-3.976-16.036-10.267c3-6.2907 9.1455-10.267 16.036-10.267m0-3.7333c-9.0909 0-16.855 5.8053-20 14 3.1455 8.1947 10.909 14 20 14 9.0909 0 16.855-5.8053 20-14-3.1455-8.1947-10.909-14-20-14zm0 5.6c-4.5091 0-8.1818 3.7707-8.1818 8.4s3.6727 8.4 8.1818 8.4 8.1818-3.7707 8.1818-8.4-3.6727-8.4-8.1818-8.4z"/></svg>