<svg xmlns="http://www.w3.org/2000/svg" width="24" height="24" version="1.1" viewBox="0 0 6.35 6.35" xml:space="preserve"><metadata/><g><path fill="none" stroke="#fff" stroke-linecap="square" stroke-width="1.987" d="m10.504 5.2903 5.4802 5.7334c3.5893 3.5887-1.0335 8.3395-4.9285 4.7251l-5.7647-5.2463-3.1278 3.1273 6.0689 6.0041 0.45005 0.43638c2.9767 2.8005 7.8279 2.5137 10.896-0.64416 3.0921-3.163 3.3718-8.0967 0.46679-10.998l-0.29897-0.30008-6.1142-5.9646z" transform="matrix(.2659 0 0 .26682 -.046617 -.047527)"/><g fill="#fff" stroke-width="1.503"><path d="m-15.678 3.9754 3.9629-0.054066 0.10342 3.5562-4.039 0.094501z" transform="matrix(.2659 0 0 .26682 -.046617 -.047527) matrix(-.71808 -.69596 -.69588 .71816 0 0)"/><path d="m16.409 5.9693-2.8744-2.8355-2.428 2.3722 2.8624 2.9918z" transform="matrix(.2659 0 0 .26682 -.046617 -.047527)"/></g></g></svg>